<?xml version="1.0" encoding="UTF-8"?>
<svg id="_レイヤー_1" data-name="レイヤー 1" xmlns="http://www.w3.org/2000/svg" viewBox="0 0 193.9 72.99">
  <defs>
    <style>
      .cls-1 {
        fill: #171836;
        stroke-width: 0px;
      }

      .cls-2 {
        fill: #231815;
        font-family: Outfit-Regular, Outfit;
        font-size: 21px;
        font-variation-settings: 'wght' 400;
      }
    </style>
  </defs>
  <g>
    <path class="cls-1" d="M58.98,41.6c-3.4-4.72-5.25-11.84-15.03-11.84h-.75c-9.78,0-11.63,7.13-15.03,11.84-3.4,4.72-18.27,10.19-12.35,24.09,5.25,12.35,19.76,5.32,27.74,5.27h.03c7.98.05,22.49,7.08,27.74-5.27,5.91-13.9-8.96-19.37-12.35-24.09Z"/>
    <g>
      <g>
        <path class="cls-1" d="M3.55,21.16c4.11-2.49,10.88.55,15.07,6.12,5.23,6.95,3.13,13.57-1.48,16.36l-.03.02c-4.6,2.79-11.45,1.59-15.19-6.26-2.99-6.29-2.51-13.73,1.59-16.22"/>
        <path class="cls-1" d="M27.04.09c4.73-.83,9.97,4.48,11.86,11.19,2.36,8.37-2,13.79-7.3,14.72h-.03c-5.3.94-11.25-2.65-11.89-11.33C19.16,7.72,22.27.93,27,.09"/>
      </g>
      <g>
        <path class="cls-1" d="M83.61,21.16c-4.11-2.49-10.88.55-15.07,6.12-5.24,6.95-3.13,13.57,1.48,16.36l.03.02c4.6,2.79,11.45,1.59,15.19-6.26,2.99-6.29,2.51-13.73-1.59-16.22"/>
        <path class="cls-1" d="M60.12.09c-4.73-.83-9.97,4.48-11.86,11.19-2.36,8.37,2,13.79,7.3,14.72h.03c5.3.94,11.25-2.65,11.89-11.33.51-6.95-2.6-13.74-7.33-14.57"/>
      </g>
    </g>
  </g>
  <text class="cls-2" transform="translate(108.69 40.86)"><tspan x="0" y="0">nikukyu</tspan></text>
</svg>